<svg width="128" height="28" viewBox="0 0 128 28" fill="none" xmlns="http://www.w3.org/2000/svg">
<path d="M0.41223 0.35547H17.909V3.63484H11.0293V22.0698H7.24617V3.63484H0.396973V0.35547H0.41223ZM17.1615 6.34721H20.3954V9.38139H20.4564C20.5632 8.95232 20.7615 8.53857 21.0514 8.14014C21.3412 7.74171 21.692 7.35861 22.1039 7.0368C22.5158 6.69967 22.9734 6.43916 23.4768 6.22462C23.9802 6.02541 24.4988 5.91814 25.0175 5.91814C25.4141 5.91814 25.7039 5.93346 25.8565 5.94878C26.009 5.96411 26.1616 5.99476 26.3294 6.01008V9.35075C26.0853 9.30477 25.8412 9.27413 25.5819 9.24348C25.3226 9.21283 25.0785 9.19751 24.8344 9.19751C24.2548 9.19751 23.7056 9.3201 23.187 9.54996C22.6683 9.77982 22.2259 10.1323 21.8446 10.5767C21.4632 11.0364 21.1581 11.5881 20.9293 12.2623C20.7005 12.9366 20.5937 13.7028 20.5937 14.5763V22.0545H17.1462V6.34721L17.1615 6.34721ZM42.1786 22.0698H38.7922V19.8784H38.7311C38.304 20.6753 37.6786 21.3036 36.8396 21.7786C36.0006 22.2537 35.1464 22.4989 34.2769 22.4989C32.2175 22.4989 30.7226 21.9932 29.8074 20.9665C28.8921 19.9397 28.4345 18.392 28.4345 16.3232V6.34721H31.8819V15.9861C31.8819 17.3653 32.1413 18.346 32.6752 18.913C33.1938 19.48 33.9413 19.7712 34.8871 19.7712C35.6193 19.7712 36.2142 19.6639 36.7023 19.434C37.1905 19.2042 37.5871 18.913 37.8769 18.5299C38.182 18.1621 38.3956 17.7024 38.5328 17.1814C38.6701 16.6604 38.7311 16.0934 38.7311 15.4804V6.36254H42.1786V22.0698ZM48.0516 17.0281C48.1583 18.0395 48.5397 18.7445 49.1956 19.1582C49.8668 19.5566 50.66 19.7712 51.5906 19.7712C51.9109 19.7712 52.277 19.7405 52.6889 19.6945C53.1007 19.6486 53.4974 19.5413 53.8482 19.4034C54.2143 19.2655 54.5041 19.0509 54.7482 18.7751C54.977 18.4993 55.0838 18.1468 55.0686 17.7024C55.0533 17.258 54.8855 16.8902 54.5804 16.6144C54.2753 16.3232 53.894 16.1087 53.4211 15.9248C52.9482 15.7562 52.4143 15.603 51.8041 15.4804C51.1939 15.3578 50.5838 15.2199 49.9583 15.082C49.3177 14.9441 48.6922 14.7602 48.0973 14.561C47.5024 14.3617 46.9685 14.0859 46.4956 13.7335C46.0227 13.3963 45.6414 12.9519 45.3668 12.4156C45.077 11.8792 44.9397 11.2203 44.9397 10.4234C44.9397 9.56528 45.1532 8.86037 45.5651 8.27805C45.977 7.69574 46.5109 7.23601 47.1363 6.88356C47.777 6.5311 48.4787 6.28592 49.2566 6.13268C50.0346 5.99476 50.7821 5.91814 51.4838 5.91814C52.2923 5.91814 53.0702 6.01008 53.8024 6.17865C54.5346 6.34721 55.2058 6.62305 55.8008 7.02148C56.3957 7.40458 56.8838 7.91028 57.2804 8.52324C57.677 9.13621 57.9211 9.88709 58.0279 10.7606H54.4279C54.2601 9.93306 53.894 9.36607 53.299 9.09024C52.7041 8.79908 52.0177 8.66116 51.255 8.66116C51.0109 8.66116 50.7211 8.67648 50.3855 8.72245C50.0499 8.76843 49.7448 8.84505 49.4397 8.95232C49.1499 9.05959 48.9058 9.22815 48.6922 9.44269C48.4939 9.65723 48.3871 9.93307 48.3871 10.2855C48.3871 10.7146 48.5397 11.0517 48.8295 11.3122C49.1194 11.5727 49.5007 11.7873 49.9736 11.9712C50.4465 12.1397 50.9804 12.293 51.5906 12.4156C52.2007 12.5382 52.8262 12.6761 53.4668 12.814C54.0923 12.9519 54.7024 13.1358 55.3126 13.335C55.9228 13.5342 56.4567 13.8101 56.9296 14.1625C57.4025 14.515 57.7838 14.9441 58.0737 15.4651C58.3635 15.9861 58.516 16.645 58.516 17.4112C58.516 18.346 58.3025 19.1276 57.8754 19.7865C57.4482 20.4301 56.8991 20.9665 56.2279 21.3649C55.5567 21.7633 54.794 22.0698 53.9702 22.2537C53.1465 22.4376 52.3228 22.5295 51.5143 22.5295C50.5228 22.5295 49.6075 22.4222 48.7685 22.1924C47.9295 21.9625 47.1973 21.6254 46.5871 21.181C45.977 20.7213 45.4888 20.1543 45.138 19.48C44.7871 18.8057 44.6041 17.9936 44.5736 17.0588H48.0516V17.0281ZM59.4313 6.34721H62.0398V1.62737H65.4873V6.34721H68.5992V8.93699H65.4873V17.3346C65.4873 17.7024 65.5025 18.0089 65.533 18.2847C65.5635 18.5452 65.6398 18.7751 65.7466 18.959C65.8534 19.1429 66.0212 19.2808 66.25 19.3727C66.4788 19.4647 66.7686 19.5107 67.1652 19.5107C67.4093 19.5107 67.6534 19.5107 67.8975 19.4953C68.1415 19.48 68.3856 19.4494 68.6297 19.3881V22.0698C68.2483 22.1158 67.8669 22.1464 67.5161 22.1924C67.15 22.2384 66.7839 22.2537 66.4025 22.2537C65.4873 22.2537 64.7551 22.1617 64.2059 21.9932C63.6567 21.8246 63.2144 21.5641 62.9093 21.227C62.5889 20.8898 62.3906 20.4761 62.2686 19.9704C62.1618 19.4647 62.0855 18.8824 62.0703 18.2388V8.96764H59.4618V6.34721H59.4313ZM71.0399 6.34721H74.3043V8.47727H74.3653C74.8534 7.55782 75.5246 6.9142 76.3941 6.51578C77.2636 6.11735 78.1941 5.91814 79.2162 5.91814C80.4518 5.91814 81.5196 6.13267 82.4348 6.57707C83.3501 7.00615 84.1128 7.60379 84.723 8.37C85.3332 9.13621 85.7756 10.025 86.0806 11.0364C86.3857 12.0478 86.5383 13.1358 86.5383 14.2851C86.5383 15.3425 86.401 16.3692 86.1264 17.35C85.8518 18.346 85.44 19.2195 84.8908 19.9857C84.3416 20.7519 83.6399 21.3496 82.7857 21.8093C81.9315 22.269 80.9399 22.4989 79.7806 22.4989C79.2772 22.4989 78.7738 22.4529 78.2704 22.3609C77.767 22.269 77.2789 22.1158 76.8212 21.9165C76.3636 21.7173 75.9212 21.4568 75.5399 21.135C75.1433 20.8132 74.8229 20.4454 74.5484 20.0317H74.4873V27.8776H71.0399V6.34721ZM83.0908 14.2238C83.0908 13.5189 82.9993 12.8293 82.8162 12.1551C82.6332 11.4808 82.3586 10.8985 81.9925 10.3775C81.6264 9.85644 81.1687 9.44269 80.6348 9.13621C80.0857 8.82973 79.4603 8.66116 78.7586 8.66116C77.3094 8.66116 76.2111 9.16686 75.4789 10.1783C74.7467 11.1896 74.3805 12.5382 74.3805 14.2238C74.3805 15.0207 74.4721 15.7562 74.6704 16.4305C74.8687 17.1048 75.1433 17.6871 75.5399 18.1775C75.9212 18.6678 76.3789 19.0509 76.9128 19.3268C77.4467 19.6179 78.0721 19.7558 78.7738 19.7558C79.567 19.7558 80.223 19.5873 80.7721 19.2655C81.3213 18.9437 81.7637 18.5146 82.1145 18.0089C82.4654 17.4879 82.7247 16.9056 82.8772 16.2466C83.0145 15.5877 83.0908 14.9134 83.0908 14.2238ZM89.1773 0.355469H92.6248V3.63484H89.1773V0.355469ZM89.1773 6.34721H92.6248V22.0698H89.1773V6.34721ZM95.7061 0.355469H99.1536V22.0698H95.7061V0.355469ZM109.725 22.4989C108.474 22.4989 107.36 22.2843 106.384 21.8706C105.408 21.4568 104.584 20.8745 103.898 20.1543C103.227 19.4187 102.708 18.5452 102.357 17.5338C102.006 16.5224 101.823 15.4038 101.823 14.1932C101.823 12.9979 102.006 11.8946 102.357 10.8832C102.708 9.87177 103.227 8.99829 103.898 8.26273C104.569 7.52717 105.408 6.96018 106.384 6.54643C107.36 6.13267 108.474 5.91814 109.725 5.91814C110.976 5.91814 112.089 6.13267 113.066 6.54643C114.042 6.96018 114.866 7.5425 115.552 8.26273C116.223 8.99829 116.742 9.87177 117.093 10.8832C117.444 11.8946 117.627 12.9979 117.627 14.1932C117.627 15.4038 117.444 16.5224 117.093 17.5338C116.742 18.5452 116.223 19.4187 115.552 20.1543C114.881 20.8898 114.042 21.4568 113.066 21.8706C112.089 22.2843 110.976 22.4989 109.725 22.4989ZM109.725 19.7558C110.488 19.7558 111.159 19.5873 111.723 19.2655C112.288 18.9437 112.745 18.5146 113.111 17.9936C113.477 17.4725 113.737 16.8749 113.92 16.216C114.088 15.557 114.179 14.8828 114.179 14.1932C114.179 13.5189 114.088 12.86 113.92 12.1857C113.752 11.5115 113.477 10.9291 113.111 10.4081C112.745 9.88709 112.288 9.47334 111.723 9.15153C111.159 8.82973 110.488 8.66116 109.725 8.66116C108.962 8.66116 108.291 8.82973 107.727 9.15153C107.162 9.47334 106.705 9.90242 106.338 10.4081C105.972 10.9291 105.713 11.5115 105.53 12.1857C105.362 12.86 105.271 13.5189 105.271 14.1932C105.271 14.8828 105.362 15.557 105.53 16.216C105.698 16.8749 105.972 17.4725 106.338 17.9936C106.705 18.5146 107.162 18.9437 107.727 19.2655C108.291 19.6026 108.962 19.7558 109.725 19.7558ZM118.633 6.34721H121.242V1.62737H124.689V6.34721H127.801V8.93699H124.689V17.3346C124.689 17.7024 124.705 18.0089 124.735 18.2847C124.766 18.5452 124.842 18.7751 124.949 18.959C125.056 19.1429 125.223 19.2808 125.452 19.3727C125.681 19.4647 125.971 19.5107 126.367 19.5107C126.611 19.5107 126.855 19.5107 127.1 19.4953C127.344 19.48 127.588 19.4494 127.832 19.3881V22.0698C127.45 22.1158 127.069 22.1464 126.718 22.1924C126.352 22.2384 125.986 22.2537 125.605 22.2537C124.689 22.2537 123.957 22.1617 123.408 21.9932C122.859 21.8246 122.416 21.5641 122.111 21.227C121.791 20.8898 121.593 20.4761 121.471 19.9704C121.364 19.4647 121.288 18.8824 121.272 18.2388V8.96764H118.664V6.34721L118.633 6.34721Z" fill="#191919"/>
</svg>
