<svg width="94" height="58" viewBox="0 0 94 58" fill="none" xmlns="http://www.w3.org/2000/svg">
<path d="M89.8979 3.98856L79.1685 8.40801C79.1685 8.40801 89.8546 4.03078 89.8546 3.98817H58.8779V4.58869C58.8346 5.61848 58.6616 6.60567 58.3587 7.50684C57.9693 8.79388 57.3636 9.99571 56.5416 11.0255C55.46 12.4846 54.0324 13.729 52.3451 14.5442C52.3018 14.5442 52.2585 14.5872 52.2585 14.5872C52.172 14.6298 52.0855 14.6728 51.9557 14.7158H51.9124C51.8259 14.7588 51.8259 14.7588 51.7826 14.7588H51.7394V3.98856H39.9284C39.7121 3.98856 39.4958 4.1602 39.4958 4.37484V6.09116C39.8419 5.61888 40.4043 5.31862 41.0533 5.31862C41.3994 5.31862 41.7455 5.40463 42.0051 5.57626C42.0483 5.57626 42.0916 5.61927 42.1349 5.61927C42.2647 5.70489 42.3512 5.7909 42.4377 5.83352C42.7838 6.09116 43.0867 6.39142 43.3462 6.73469L43.9519 7.67886L45.1633 9.60983L41.8753 14.7588C41.7022 14.6732 41.5724 14.6306 41.3561 14.5016C39.7197 13.6475 38.2878 12.4469 37.1595 10.9829C36.3773 9.91056 35.7645 8.72376 35.3425 7.46422C35.0785 6.55375 34.9046 5.61939 34.8233 4.6747C34.8233 4.41745 34.7801 4.1602 34.7801 3.94556H3.97637L14.576 8.36539L3.93311 3.98856C4.27921 5.18999 4.71185 6.34841 5.14449 7.50723L13.4511 11.0259H6.74524C7.35093 12.2273 7.99988 13.4288 8.73536 14.5446L23.0556 18.0632H11.1581C12.1099 19.3077 13.105 20.4661 14.1433 21.5819L32.6169 25.1866H17.864C19.3782 26.4736 20.979 27.6324 22.6662 28.7052L42.1349 32.2239H29.3288C34.2609 34.3265 39.5823 35.5279 45.2066 35.7426H48.5811C54.2054 35.5279 59.5701 34.2835 64.4589 32.2239H51.6529L71.1647 28.7052C72.852 27.632 74.4528 26.431 75.967 25.1866H61.2141L79.6877 21.6679C80.726 20.5521 81.7211 19.3507 82.6729 18.1492H70.7754L85.0956 14.6302C85.7878 13.4718 86.48 12.3133 87.0857 11.1115H80.3366L88.6432 7.59285C89.1624 6.34841 89.5518 5.18999 89.8979 3.98856Z" fill="#E6E7E8"/>
<path d="M46.2016 7.63578C47.1098 7.63578 47.8457 6.90584 47.8457 6.00507C47.8457 5.10469 47.1098 4.37476 46.2016 4.37476C45.2939 4.37476 44.5576 5.10469 44.5576 6.00507C44.5576 6.90584 45.2939 7.63578 46.2016 7.63578Z" fill="#99999B"/>
<path d="M58.9208 3.98856H58.8776V4.58908C58.8343 5.61888 58.6613 6.60606 58.3584 7.50723C57.969 8.79428 57.3634 9.9961 56.5413 11.0259C55.4598 12.485 54.0321 13.7294 52.3448 14.5446C52.3015 14.5446 52.2582 14.5876 52.2582 14.5876C52.1717 14.6302 52.0852 14.6732 51.9554 14.7162H51.9121C51.8256 14.7592 51.8256 14.7592 51.7824 14.7592H51.7391V3.98856H39.9281C39.7118 3.98856 39.4955 4.1602 39.4955 4.37484V6.09116C39.8416 5.61888 40.404 5.31862 41.053 5.31862C41.3991 5.31862 41.7452 5.40463 42.0048 5.57626C42.048 5.57626 42.0913 5.61927 42.1346 5.61927C42.2644 5.70489 42.3509 5.7909 42.4374 5.83352C42.7835 6.09116 43.0864 6.39142 43.346 6.73469L43.9516 7.67886L45.163 9.60983L41.875 14.7588C41.7019 14.6732 41.5721 14.6306 41.3558 14.5016C39.7194 13.6475 38.2875 12.4469 37.1593 10.9829C36.377 9.91056 35.7642 8.72376 35.3422 7.46422C35.0782 6.55375 34.9043 5.61939 34.823 4.6747C34.823 4.41745 34.7798 4.1602 34.7798 3.94556H3.97607L14.5757 8.36539L14.9218 8.49402L15.2246 8.70866L46.8936 32.1809L78.5625 8.75167L78.8654 8.53703L79.2115 8.4084C79.2115 8.4084 89.8976 4.03118 89.8976 3.98856H58.9208ZM46.2446 4.7181C46.807 4.7181 47.2829 5.18999 47.2829 5.7479C47.2829 6.3058 46.807 6.77769 46.2446 6.77769C45.6822 6.77769 45.2063 6.3058 45.2063 5.7479C45.2063 5.18999 45.6822 4.7181 46.2446 4.7181Z" fill="#E7E7E6"/>
<path d="M89.8979 3.98853L79.1685 8.40797L78.8224 8.53659L78.5196 8.75123L46.8939 32.1805L15.1816 8.75163L14.8788 8.53699L14.5327 8.40836L3.93311 3.98853C4.27921 5.18995 4.71185 6.34838 5.14449 7.50719L13.4511 11.0259H6.74524C7.35093 12.2273 7.99988 13.4287 8.73536 14.5445L23.0556 18.0632H11.1581C12.1099 19.3076 13.105 20.466 14.1433 21.5819L32.6169 25.1865H17.864C19.3782 26.4736 20.979 27.6324 22.6662 28.7052L42.1349 32.2239H29.3288C34.2609 34.3265 39.5823 35.5279 45.2066 35.7425H48.5811C54.2054 35.5279 59.5701 34.2835 64.4589 32.2239H51.6529L71.1647 28.7052C72.852 27.632 74.4528 26.431 75.967 25.1865H61.2141L79.6877 21.6679C80.726 20.5521 81.7211 19.3506 82.6729 18.1492H70.7754L85.0956 14.6301C85.7878 13.4717 86.48 12.3133 87.0857 11.1115H80.3366L88.6432 7.59281C89.1624 6.34838 89.5518 5.18995 89.8979 3.98853Z" fill="#CED4D4"/>
<path d="M50.6141 17.291H33.0059L37.0726 24.2423H57.4931L61.5598 17.291H50.6141Z" fill="#0055A2"/>
<path d="M57.4932 24.2424H50.6143V36.0429L54.4215 29.5208L57.4932 24.2424Z" fill="#CE2832"/>
<path d="M43.9517 24.2424V36.0429L47.283 41.7932L50.6143 36.0429V24.2424H43.9517Z" fill="#F2F2F2"/>
<path d="M43.5623 24.2424H37.0728L40.1445 29.5204L43.9517 36.0429V24.2424H43.5623Z" fill="#CE2832"/>
<path d="M47.2828 18.7493L47.8452 19.9081L49.0998 20.0797L48.1913 20.9809L48.4076 22.2253L47.2828 21.6244L46.1146 22.2253L46.3742 20.9809L45.4224 20.0797L46.7203 19.9081L47.2828 18.7493ZM53.9886 18.7493L54.551 19.9081L55.8489 20.0797L54.8971 20.9809L55.1135 22.2253L53.9886 21.6244L52.8638 22.2253L53.0801 20.9809L52.1715 20.0797L53.4262 19.9081L53.9886 18.7493ZM40.5336 18.7493L41.1393 19.9081L42.394 20.0797L41.4854 20.9809L41.7018 22.2253L40.5336 21.6244L39.4088 22.2253L39.6251 20.9809L38.7166 20.0797L39.9712 19.9081L40.5336 18.7493ZM19.1382 54.0744C18.3957 54.0744 17.81 53.8724 17.3825 53.4684C16.9546 53.0644 16.7402 52.4899 16.7402 51.745V47.2943H17.5992V51.6976C17.5992 52.2153 17.7349 52.613 18.0051 52.8907C18.282 53.1622 18.6596 53.2979 19.1378 53.2979C19.6165 53.2979 19.9941 53.1622 20.2705 52.8907C20.5474 52.613 20.6859 52.2153 20.6859 51.6976V47.2943H21.5449V51.745C21.5449 52.4899 21.3277 53.0644 20.8935 53.4684C20.466 53.8724 19.8808 54.0744 19.1382 54.0744ZM26.744 54.0744C25.9951 54.0744 25.4099 53.8756 24.9882 53.4779C24.5666 53.0801 24.3558 52.5246 24.3558 51.8112H25.2148C25.2148 52.2784 25.3501 52.6477 25.6207 52.9192C25.8913 53.1843 26.2626 53.3169 26.7345 53.3169C27.1498 53.3169 27.4708 53.2222 27.6973 53.0328C27.9239 52.8434 28.0371 52.5751 28.0371 52.2279C28.0371 51.9375 27.9553 51.7039 27.7917 51.5272C27.6344 51.3441 27.3638 51.1863 26.9799 51.0537L25.885 50.6654C24.9977 50.3814 24.554 49.8006 24.554 48.9231C24.554 48.5759 24.6421 48.2665 24.8183 47.9951C24.9945 47.7236 25.24 47.5153 25.5546 47.3701C25.8692 47.2186 26.2279 47.1428 26.6307 47.1428C27.2789 47.1428 27.798 47.3259 28.1882 47.6921C28.5783 48.0582 28.7734 48.5506 28.7734 49.1693H27.9144C27.9144 48.7589 27.8012 48.4433 27.5746 48.2223C27.3481 47.9951 27.024 47.8814 26.6024 47.8814C26.2374 47.8814 25.9479 47.973 25.7339 48.1561C25.52 48.3328 25.413 48.5727 25.413 48.8757C25.413 49.1535 25.5043 49.3871 25.6868 49.5765C25.8755 49.7595 26.1745 49.9205 26.5835 50.0594L27.6029 50.4192C28.4651 50.7159 28.8961 51.3094 28.8961 52.1995C28.8961 52.7676 28.701 53.2222 28.3109 53.5631C27.9207 53.904 27.3984 54.0744 26.744 54.0744ZM36.1978 47.2943H37.0285L39.2939 52.7014L41.5598 47.2943H42.381V53.9229H41.5598V49.0841L39.6247 53.9229H38.964L37.0195 49.0557V53.9229H36.1982L36.1978 47.2943ZM48.7942 54.0744C48.1083 54.0744 47.5073 53.9198 46.9913 53.6104C46.4875 53.3077 46.0761 52.8721 45.802 52.351C45.5251 51.8207 45.3866 51.2399 45.3866 50.6086C45.3866 49.9773 45.5251 49.3997 45.802 48.8757C46.0725 48.3521 46.4848 47.9156 46.9913 47.6163C47.5073 47.3007 48.1083 47.1428 48.7942 47.1428C49.4802 47.1428 50.0811 47.3007 50.5971 47.6163C51.1037 47.9156 51.5159 48.3521 51.7865 48.8757C52.0634 49.3997 52.2018 49.9773 52.2018 50.6086C52.2018 51.2399 52.0634 51.8207 51.7865 52.351C51.5124 52.8721 51.101 53.3077 50.5971 53.6104C50.0811 53.9198 49.4802 54.0744 48.7942 54.0744ZM48.7942 53.2979C49.3102 53.2979 49.757 53.178 50.1346 52.9381C50.5068 52.6979 50.807 52.3608 51.003 51.9628C51.2044 51.5524 51.3019 51.101 51.2957 50.6086C51.3019 50.1162 51.2044 49.668 51.003 49.264C50.8105 48.8636 50.5096 48.5256 50.1346 48.2886C49.757 48.0424 49.3102 47.9193 48.7942 47.9193C48.2782 47.9193 47.8283 48.0424 47.4444 48.2886C47.0695 48.5256 46.7685 48.8636 46.576 49.264C46.3746 49.668 46.2771 50.1162 46.2834 50.6086C46.2771 51.101 46.3746 51.5524 46.576 51.9628C46.772 52.3608 47.0722 52.6979 47.4444 52.9381C47.8283 53.178 48.2782 53.2979 48.7942 53.2979ZM58.1757 50.5423C58.5533 50.5865 58.868 50.7475 59.1197 51.0253C59.3777 51.303 59.5067 51.666 59.5067 52.1143C59.5067 52.6761 59.3242 53.118 58.9592 53.44C58.5942 53.7619 58.0939 53.9229 57.4584 53.9229H55.1929V47.2943H57.364C57.9995 47.2943 58.4998 47.4459 58.8648 47.7489C59.2361 48.0519 59.4217 48.4717 59.4217 49.0083C59.4217 49.4439 59.3116 49.788 59.0914 50.0405C58.8711 50.293 58.5659 50.4603 58.1757 50.5423ZM56.0519 48.0614V50.1825H57.3923C57.751 50.1825 58.0342 50.0878 58.2418 49.8984C58.4558 49.709 58.5628 49.4502 58.5628 49.1219C58.5628 48.781 58.4526 48.5191 58.2324 48.336C58.0184 48.1529 57.7195 48.0614 57.3356 48.0614H56.0519ZM57.4395 53.1559C57.8171 53.1559 58.1128 53.058 58.3268 52.8623C58.5407 52.6603 58.6477 52.3826 58.6477 52.029C58.6477 51.7071 58.5407 51.4451 58.3268 51.2431C58.1191 51.0411 57.8485 50.9401 57.515 50.9401H56.0519V53.1559H57.4395ZM62.5749 47.2943H63.4338V53.9229H62.5749V47.2943ZM66.8316 47.2943H67.6906V53.1085H70.5035V53.9229H66.8316V47.2943ZM73.5312 47.2943H77.288V48.0708H74.3902V50.2393H77.288V51.0158H74.3902V53.1464H77.288V53.9229H73.5312V47.2943Z" fill="white"/>
</svg>
